<svg id="Layer_1" data-name="Layer 1" xmlns="http://www.w3.org/2000/svg" viewBox="0 0 162 108"><defs><style>.cls-1{fill:#e6e6e6;}.cls-2{fill:#39475f;}.cls-3{fill:#61728d;}.cls-4{fill:#181f27;}.cls-5{fill:#1e252e;}.cls-6{fill:#2d394b;}.cls-7{fill:#fc7614;}.cls-10,.cls-13,.cls-8,.cls-9{fill:#fff;}.cls-10,.cls-13,.cls-9{isolation:isolate;}.cls-9{opacity:0.46;}.cls-10{opacity:0.3;}.cls-11{fill:#bad6fa;}.cls-12{fill:#546f8d;}.cls-13{opacity:0.48;}</style></defs><path class="cls-1" d="M30,93.74h0c-.54,0-1.08-.1-1.61-.18a.54.54,0,0,1-.46-.62.53.53,0,0,1,.61-.46h0c.52.08,1,.13,1.56.18a.54.54,0,1,1,0,1.07Zm5.37-.2a.54.54,0,0,1-.58-.5.55.55,0,0,1,.5-.58c.52-.08,1-.18,1.54-.3a.52.52,0,0,1,.64.4h0a.53.53,0,0,1-.39.65c-.54.13-1.08.23-1.61.32ZM23.23,92.23a.39.39,0,0,1-.18,0c-.52-.18-1-.38-1.53-.6a.55.55,0,0,1-.25-.72A.53.53,0,0,1,22,90.6c.48.21,1,.4,1.47.58a.54.54,0,0,1-.19,1ZM42,91.4a.54.54,0,0,1-.54-.53.52.52,0,0,1,.3-.49c.47-.23.93-.48,1.39-.75a.54.54,0,0,1,.54.93h0c-.48.28-1,.54-1.45.78a.58.58,0,0,1-.26.06ZM17,89.11a.6.6,0,0,1-.29-.08c-.46-.29-.92-.6-1.36-.91a.54.54,0,0,1-.14-.75.54.54,0,0,1,.75-.14h0c.44.31.88.6,1.32.89a.53.53,0,0,1,.16.74.56.56,0,0,1-.44.25Zm30.77-1.55a.53.53,0,0,1-.41-.19.55.55,0,0,1,.06-.76l.12-.12,1.07-1a.54.54,0,0,1,.73.79c-.37.34-.74.67-1.1,1l-.13.11A.53.53,0,0,1,47.77,87.56ZM11.44,84.87a.54.54,0,0,1-.36-.14c-.4-.37-.8-.74-1.18-1.12a.55.55,0,0,1,0-.76.53.53,0,0,1,.7,0c.38.37.77.74,1.16,1.08a.54.54,0,0,1,0,.76h0a.51.51,0,0,1-.4.19Zm41.31-2.21a.54.54,0,0,1-.54-.53.55.55,0,0,1,.14-.37c.36-.39.72-.79,1.07-1.2a.55.55,0,0,1,.76,0,.53.53,0,0,1,0,.76h0c-.36.42-.72.82-1.07,1.21a.57.57,0,0,1-.41.16v0Zm-46-2.94a.53.53,0,0,1-.42-.2c-.34-.43-.67-.87-1-1.31a.54.54,0,0,1,.12-.75h0a.53.53,0,0,1,.74.12c.31.43.63.85,1,1.27a.54.54,0,0,1-.09.76.55.55,0,0,1-.33.11ZM57.3,77.34a.54.54,0,0,1-.54-.54.7.7,0,0,1,.12-.34l1-1.25a.54.54,0,0,1,.84.67l-1,1.26A.53.53,0,0,1,57.3,77.34ZM2.9,73.89a.55.55,0,0,1-.47-.31c-.26-.5-.5-1-.72-1.49A.54.54,0,0,1,2,71.38a.54.54,0,0,1,.71.28c.21.46.44.94.68,1.42a.54.54,0,0,1-.48.79v0Zm58.75-2a.54.54,0,0,1-.53-.54.57.57,0,0,1,.11-.33l1-1.27a.53.53,0,1,1,.88.6.1.1,0,0,1,0,.05l-1,1.28a.57.57,0,0,1-.43.19Zm-61-4.57a.55.55,0,0,1-.54-.47C.07,66.27,0,65.72,0,65.16a.54.54,0,0,1,.5-.57.53.53,0,0,1,.57.5.08.08,0,0,1,0,.07c0,.52.07,1,.14,1.55a.55.55,0,0,1-.46.61h0l-.07,0Zm65.24-1a.53.53,0,0,1-.54-.53.55.55,0,0,1,.11-.33l1-1.28a.54.54,0,0,1,.75-.11.55.55,0,0,1,.1.76h0l-1,1.26a.54.54,0,0,1-.42.21Zm88.49-3h-.15a.53.53,0,0,1-.36-.66h0c.13-.48.28-1,.42-1.55a.55.55,0,0,1,.65-.39h0a.53.53,0,0,1,.39.65h0c-.15.54-.29,1.07-.43,1.56a.52.52,0,0,1-.52.37ZM70.16,60.76a.53.53,0,0,1-.53-.53.6.6,0,0,1,.11-.34l1-1.28a.55.55,0,0,1,.76-.09.54.54,0,0,1,.1.76h0l-1,1.27a.52.52,0,0,1-.41.18v0ZM1.24,60.38H1.08a.54.54,0,0,1-.35-.67h0c.16-.53.34-1.05.54-1.57a.53.53,0,1,1,1,.35.08.08,0,0,1,0,0c-.19.49-.37,1-.54,1.48a.54.54,0,0,1-.47.33ZM156,56.52h-.1a.55.55,0,0,1-.43-.63c.1-.54.19-1,.28-1.58a.55.55,0,1,1,1.09.11.64.64,0,0,0,0,.07c-.09.54-.18,1.07-.28,1.61a.53.53,0,0,1-.54.42ZM74.46,55.21a.54.54,0,0,1-.54-.53.5.5,0,0,1,.12-.34l1-1.27a.54.54,0,1,1,.84.67l-1,1.26a.55.55,0,0,1-.41.21Zm-70-1a.55.55,0,0,1-.54-.55A.58.58,0,0,1,4,53.31c.32-.44.66-.87,1-1.3a.54.54,0,0,1,.82.7h0c-.34.4-.67.81-1,1.23A.54.54,0,0,1,4.44,54.17Zm74.4-4.42a.55.55,0,0,1-.53-.55.52.52,0,0,1,.12-.33l1-1.25a.54.54,0,0,1,.75-.09.55.55,0,0,1,.09.76l-1,1.24A.54.54,0,0,1,78.84,49.75ZM157,49.59h-.05a.54.54,0,0,1-.49-.58c0-.54.08-1.07.11-1.61a.54.54,0,0,1,.54-.54h0a.54.54,0,0,1,.51.56c0,.54-.07,1.08-.11,1.62a.54.54,0,0,1-.53.55ZM9.28,49.13a.54.54,0,0,1-.34-1c.8-.64,1.32-1,1.34-1a.53.53,0,1,1,.59.89s-.5.34-1.25.95a.55.55,0,0,1-.35.12Zm74.07-4.74a.54.54,0,0,1-.53-.54A.56.56,0,0,1,83,43.5c.35-.41.71-.82,1.08-1.22a.53.53,0,1,1,.8.71l-1.07,1.22a.56.56,0,0,1-.42.18Zm73.75-1.8a.54.54,0,0,1-.54-.5q0-.81-.12-1.62a.54.54,0,0,1,1.07-.15s0,0,0,.06c0,.53.09,1.07.11,1.61a.54.54,0,0,1-.5.54ZM88,39.18a.54.54,0,0,1-.53-.54.55.55,0,0,1,.14-.37l1.11-1.18a.54.54,0,0,1,.78.74L88.45,39a.52.52,0,0,1-.44.18Zm68.09-3.51a.53.53,0,0,1-.53-.4c-.12-.52-.26-1-.41-1.54a.54.54,0,0,1,.41-.64.55.55,0,0,1,.62.34c.15.53.3,1,.42,1.58a.53.53,0,0,1-.39.65h-.12ZM92.9,34.16a.53.53,0,0,1-.53-.53.55.55,0,0,1,.16-.39l1.16-1.13a.54.54,0,0,1,.76,0,.53.53,0,0,1,0,.76L93.3,34a.52.52,0,0,1-.42.17ZM98,29.42a.54.54,0,0,1-.53-.54.52.52,0,0,1,.18-.4l1.23-1.08a.54.54,0,0,1,.76.07.53.53,0,0,1-.06.76l-1.23,1a.56.56,0,0,1-.37.15Zm55.2-.58c-.25-.47-.5-.93-.78-1.38a.54.54,0,0,1,.89-.6l0,.05c.28.46.54.95.81,1.43a.54.54,0,0,1-.22.73.58.58,0,0,1-.26.06A.52.52,0,0,1,153.24,28.84ZM103.5,25.06a.54.54,0,0,1-.54-.54.54.54,0,0,1,.22-.44l1.32-.94a.53.53,0,0,1,.75.12.51.51,0,0,1,.09.27.55.55,0,0,1-.22.49l-1.3.93a.6.6,0,0,1-.34.11Zm46.13-1.56a.56.56,0,0,1-.38-.17c-.36-.35-.74-.71-1.14-1.07a.53.53,0,0,1-.05-.76.55.55,0,0,1,.76-.05h0c.4.36.81.74,1.19,1.14a.54.54,0,0,1,0,.76.57.57,0,0,1-.4.15Zm-40.28-2.28a.54.54,0,0,1-.27-1l1.42-.79a.53.53,0,0,1,.73.19.57.57,0,0,1,.08.28.56.56,0,0,1-.28.47c-.46.25-.93.54-1.39.78a.45.45,0,0,1-.34.07h0Zm34.74-1.9a.48.48,0,0,1-.26-.07c-.45-.25-.92-.49-1.4-.72a.53.53,0,0,1-.26-.71.54.54,0,0,1,.72-.26c.5.24,1,.49,1.46.75a.54.54,0,0,1,.22.73.56.56,0,0,1-.48.28ZM115.6,18.13a.54.54,0,0,1-.54-.53.52.52,0,0,1,.34-.51c.5-.21,1-.4,1.52-.58a.54.54,0,1,1,.37,1h0c-.5.18-1,.36-1.49.57a.67.67,0,0,1-.24,0Zm22.05-1.46h-.16c-.51-.15-1-.29-1.53-.41a.55.55,0,0,1,.25-1.07c.54.13,1.08.27,1.61.42a.55.55,0,0,1-.15,1.08Zm-15.46-.59a.54.54,0,0,1-.12-1.07c.54-.11,1.08-.21,1.61-.29a.54.54,0,0,1,.62.45.48.48,0,0,1,0,.29.54.54,0,0,1-.42.34c-.54.08-1,.17-1.56.28A.34.34,0,0,1,122.19,16.08Zm8.55-.61h0l-1.58-.06a.54.54,0,0,1,0-1.07c.53,0,1.07,0,1.64.06a.54.54,0,0,1,0,1.07Z"/><path class="cls-2" d="M119.85,100.22H58.15L70.33.79h55l5.74,7.6Z"/><path class="cls-3" d="M113.17,100.22H51.47L63.65.79h61.71Z"/><path class="cls-4" d="M110.13,81.35H58.58L67.37,9.66h51.55Z"/><path class="cls-5" d="M92.74,50.06l14.9.17-.29,2.31-14.61-.25Z"/><path class="cls-2" d="M51.47,100.22l7.42,6.86,60,.92.93-7.78Z"/><path class="cls-6" d="M99.1,29.06s2.57.18,3.88,5,.87,18.38.87,18.38l-11.1-.18S87.22,32.15,99.1,29.06Z"/><path class="cls-7" d="M5.42,32.84,45.78,0,67,26.12,26.6,59Z"/><path class="cls-8" d="M27.49,21.93,45.56,7.23l3.5,4.31L31,26.24Z"/><path class="cls-9" d="M25.27,45.17l5.34-4.34a2.77,2.77,0,0,1,3.9.4h0a2.78,2.78,0,0,1-.4,3.91l-5.34,4.35a2.78,2.78,0,0,1-3.9-.4h0a2.78,2.78,0,0,1,.4-3.91Zm12.06-9.8L54.22,21.62a2.78,2.78,0,0,1,3.9.4h0a2.78,2.78,0,0,1-.4,3.91L40.83,39.68a2.77,2.77,0,0,1-3.9-.4h0a2.78,2.78,0,0,1,.4-3.91Z"/><ellipse class="cls-10" cx="17.94" cy="33.64" rx="3.67" ry="3.68"/><ellipse class="cls-10" cx="21.66" cy="30.28" rx="3.67" ry="3.68"/><path class="cls-11" d="M99.1,29.06s-5.84,2.1-3.81,18.58c1.5,12.07-3.55,28.05-11,28.25s-21.2-.46-21.2-.46,7.16-18.56,5.67-34.15a14.87,14.87,0,0,1,.77-6.45C70.4,32.45,72,30,75,29.58,81,28.76,99.1,29.06,99.1,29.06Z"/><path class="cls-12" d="M59,76.63l26.34-.54s-4-4-4.27-14.15l-36.24.54A31.74,31.74,0,0,0,47.64,70,12.53,12.53,0,0,0,59,76.63Z"/><path class="cls-6" d="M78.21,14.83l-.92,6h26.62l.81-6Z"/><path class="cls-13" d="M85.54,86.19a6.29,6.29,0,0,0-9.45,1.22,5,5,0,0,0-.8,2.65c0,4,2.75,6.59,8.23,5.49,4.18-.84,5.78-6.07,2-9.36Z"/><ellipse class="cls-7" cx="147.19" cy="81.54" rx="14.81" ry="14.84"/><path class="cls-8" d="M73.73,35.75a.54.54,0,0,1-.56-.52.54.54,0,0,1,.52-.56c.12,0,11.35-.82,17.37-.29a.55.55,0,0,1,.49.59.54.54,0,0,1-.59.49c-5.91-.54-17.08.27-17.19.28ZM72.84,43a.54.54,0,1,1,0-1.08h0c.12,0,11.34-.83,17.37-.29a.54.54,0,0,1,.48.59.53.53,0,0,1-.58.49h0C84.16,42.2,73,43,72.88,43Zm-.1,7.56a.54.54,0,1,1,0-1.07c.11,0,11.34-.83,17.36-.29A.54.54,0,0,1,90,50.3c-5.91-.54-17.07.28-17.18.29ZM72,58.16a.54.54,0,0,1,0-1.08c.11,0,11.34-.83,17.36-.28a.53.53,0,0,1,.49.58.54.54,0,0,1-.59.49h0c-5.91-.54-17.07.28-17.18.29Z"/></svg>